Coordinates
version=1
nRows=11
nColumns=63
inDegrees=yes

Units are S.I. units (second, meters, Newtons, ...)
If the header above contains a line with 'inDegrees', this indicates whether rotational values are in degrees (yes) or radians (no).

endheader
time	pelvis_tilt	pelvis_list	pelvis_rotation	pelvis_tx	pelvis_ty	pelvis_tz	hip_flexion_r	hip_adduction_r	hip_rotation_r	knee_angle_r	knee_angle_r_beta	ankle_angle_r	subtalar_angle_r	mtp_angle_r	hip_flexion_l	hip_adduction_l	hip_rotation_l	knee_angle_l	knee_angle_l_beta	ankle_angle_l	subtalar_angle_l	mtp_angle_l	L5_S1_Flex_Ext	L5_S1_Lat_Bending	L5_S1_axial_rotation	L4_L5_Flex_Ext	L4_L5_Lat_Bending	L4_L5_axial_rotation	L3_L4_Flex_Ext	L3_L4_Lat_Bending	L3_L4_axial_rotation	L2_L3_Flex_Ext	L2_L3_Lat_Bending	L2_L3_axial_rotation	L1_L2_Flex_Ext	L1_L2_Lat_Bending	L1_L2_axial_rotation	L1_T12_Flex_Ext	L1_T12_Lat_Bending	L1_T12_axial_rotation	Abs_r3	Abs_r2	Abs_r1	Abs_t1	Abs_t2	neck_flexion	neck_bending	neck_rotation	arm_flex_r	arm_add_r	arm_rot_r	elbow_flex_r	pro_sup_r	wrist_flex_r	wrist_dev_r	arm_flex_l	arm_add_l	arm_rot_l	elbow_flex_l	pro_sup_l	wrist_flex_l	wrist_dev_l
      1.88135593	     10.97361936	    -20.56999977	     93.81954256	      0.29584025	      0.94536719	      0.52119210	     51.72133929	      7.70415385	    -11.99914946	     46.25876056	      0.80736768	     31.52520412	    -15.24395083	      0.00000000	     55.53523835	    -12.41979606	      6.84743672	     50.21205359	      0.87636566	     36.66166005	      1.84094936	      0.00000000	     -0.08584494	     -1.54208692	     -4.80869676	     -0.15942263	     -2.05097561	     -5.10924030	     -0.14103465	     -3.74943014	     -5.10924030	     -0.09811218	     -3.74943014	     -4.20760966	     -0.07971561	     -3.14462365	     -3.90706611	     -0.04905180	     -2.38869264	     -3.60652257	     -0.61318181	    -17.44439569	    -26.74452875	      0.00000000	      0.00000000	     25.68829229	     19.26631629	      1.90513673	    -22.80869831	    -49.05449623	    -42.93457113	     33.78733955	     33.59337675	    -19.41883315	     19.97061205	     24.63123200	    -48.62350474	     -1.72942238	     48.94550778	     88.97892161	    -31.49811666	      2.48030890
      1.89830508	     11.00030444	    -20.42096180	     93.98739369	      0.29432181	      0.94732095	      0.52076141	     51.25223531	      7.48956668	    -12.28892571	     45.89153208	      0.80095833	     31.12364054	    -15.27301936	      0.00000000	     55.03283787	    -12.31704890	      6.77885462	     49.54977771	      0.86480676	     36.79638570	      1.84906497	      0.00000000	     -0.07691912	     -1.50947838	     -4.74186142	     -0.14284650	     -2.00760625	     -5.03822776	     -0.12637042	     -3.67014574	     -5.03822776	     -0.08791086	     -3.67014574	     -4.14912875	     -0.07142709	     -3.07812832	     -3.85276241	     -0.04395158	     -2.33818201	     -3.55639607	     -0.54942558	    -17.07552135	    -26.37281068	      0.00000000	      0.00000000	     25.66188500	     19.06672717	      1.96849463	    -23.16786012	    -49.24021863	    -42.94659875	     33.50471780	     33.68904188	    -19.76669241	     20.05131588	     24.07874231	    -48.31901191	     -1.63531436	     49.38240769	     89.02100519	    -31.62677708	      2.25676565
      1.91525424	     11.39412806	    -20.16597032	     94.18951113	      0.29307801	      0.94937173	      0.52012963	     50.49854309	      7.65136186	    -12.79608041	     45.16298752	      0.78824283	     30.71550012	    -15.21271206	      0.00000000	     54.55800014	    -12.60828231	      6.84890052	     48.97954075	      0.85485425	     37.10550729	      2.23185542	      0.00000000	     -0.07970630	     -1.43687755	     -4.74393973	     -0.14802257	     -1.91104715	     -5.04043596	     -0.13094948	     -3.49362409	     -5.04043596	     -0.09109633	     -3.49362409	     -4.15094726	     -0.07401527	     -2.93008071	     -3.85445103	     -0.04554418	     -2.22572333	     -3.55795480	     -0.56933415	    -16.25424628	    -26.38436958	      0.00000000	      0.00000000	     25.35032286	     18.40619281	      2.25924290	    -22.70530864	    -49.70218680	    -42.98913068	     33.94304145	     45.38876358	    -21.44642841	     23.01603415	     22.86226096	    -47.78047596	     -2.76946679	     49.65675715	     89.04224545	    -32.29556837	      0.59108351
      1.93220339	     11.38318636	    -19.98188214	     94.16347584	      0.29229029	      0.95124854	      0.51932579	     49.89778589	      7.60514007	    -12.97229562	     44.70980397	      0.78033329	     30.36432171	    -15.19561181	      0.00000000	     54.03739670	    -12.66847812	      6.64233252	     48.47140442	      0.84598560	     37.31845133	      2.30212947	      0.00000000	     -0.06463888	     -1.42377983	     -4.66217584	     -0.12004087	     -1.89362718	     -4.95356183	     -0.10619522	     -3.46177829	     -4.95356183	     -0.07387578	     -3.46177829	     -4.07940386	     -0.06002367	     -2.90337184	     -3.78801787	     -0.03693466	     -2.20543496	     -3.49663188	     -0.46170909	    -16.10608223	    -25.92962335	      0.00000000	      0.00000000	     24.99889783	     17.78369151	      1.82394556	    -22.91641302	    -49.59960614	    -43.88622650	     34.61966335	     53.48500194	    -21.64929877	     24.85131034	     22.44273949	    -47.50310631	     -2.47743676	     49.83032778	     89.05368517	    -32.75964244	     -0.77790162
      1.94915254	     11.42039349	    -19.84882826	     94.20483592	      0.29161657	      0.95292364	      0.51833343	     49.37777800	      7.53329932	    -13.30781179	     44.30916561	      0.77334083	     30.00526521	    -15.16142897	      0.00000000	     53.58611948	    -12.66879956	      6.61877519	     48.00260873	      0.83780357	     37.48957008	      2.23753409	      0.00000000	     -0.04130303	     -1.41574373	     -4.60071035	     -0.07670386	     -1.88293915	     -4.88825475	     -0.06785675	     -3.44223929	     -4.88825475	     -0.04720523	     -3.44223929	     -4.02562156	     -0.03835399	     -2.88698460	     -3.73807716	     -0.02360055	     -2.19298703	     -3.45053276	     -0.29502341	    -16.01517617	    -25.58777075	      0.00000000	      0.00000000	     24.55860231	     17.36341626	      1.18839077	    -23.31547390	    -49.64624970	    -43.72334307	     35.31977407	     53.89175584	    -21.94176938	     24.81515192	     21.91649024	    -47.33700430	     -2.30872907	     50.27168766	     89.10481036	    -32.70720876	     -1.30034478
      1.96610169	     11.15630892	    -19.72473916	     94.00057206	      0.29118547	      0.95470954	      0.51706305	     48.89833335	      7.40318008	    -13.14859308	     44.02041922	      0.76830125	     29.87935746	    -14.95194504	      0.00000000	     52.97994494	    -12.62332280	      6.18149049	     47.54008670	      0.82973104	     37.56658193	      2.27115391	      0.00000000	     -0.00633570	     -1.44452729	     -4.44258547	     -0.01176604	     -1.92122129	     -4.72024706	     -0.01040893	     -3.51222365	     -4.72024706	     -0.00724108	     -3.51222365	     -3.88726229	     -0.00588333	     -2.94568005	     -3.60960069	     -0.00362022	     -2.23757277	     -3.33193910	     -0.04525530	    -16.34078160	    -24.70832761	      0.00000000	      0.00000000	     24.30149061	     16.12854674	     -0.89456949	    -24.32184910	    -49.42199966	    -43.65693852	     36.27992426	     56.51804848	    -23.87960013	     25.26074995	     22.43254520	    -46.77554271	     -1.55621407	     49.45807500	     89.10561396	    -32.13690635	     -3.58712916
      1.98305085	     10.76195796	    -19.51103312	     93.67761594	      0.29128931	      0.95690338	      0.51554175	     48.32368989	      7.32586427	    -12.75190497	     43.68482098	      0.76244396	     29.79806834	    -14.86733578	      0.00000000	     52.12855039	    -12.53628046	      5.70880699	     46.96938753	      0.81977046	     37.56138941	      2.15995017	      0.00000000	      0.01643889	     -1.49239320	     -4.20113598	      0.03052865	     -1.98488296	     -4.46370698	      0.02700745	     -3.62860483	     -4.46370698	      0.01878800	     -3.62860483	     -3.67599398	      0.01526515	     -3.04328821	     -3.41342298	      0.00939318	     -2.31171707	     -3.15085198	      0.11742132	    -16.88225036	    -23.36545797	      0.00000000	      0.00000000	     24.16089472	     15.33457559	     -2.82915272	    -25.48480484	    -48.37636777	    -46.28278692	     37.15073520	     59.65290353	    -23.78137423	     26.46585780	     23.93593035	    -46.47661487	      1.37856650	     47.92545176	     89.06587804	    -32.60852578	     -5.62115305
      2.00000000	     10.57180131	    -19.31649852	     93.58677260	      0.29086276	      0.95894807	      0.51415398	     47.82493172	      7.26207348	    -12.53259036	     43.33692721	      0.75637207	     29.85395688	    -14.66319098	      0.00000000	     51.42982688	    -12.39807861	      5.56352597	     46.47796392	      0.81119350	     37.48940407	      2.04977566	      0.00000000	      0.03675976	     -1.51267955	     -4.04781148	      0.06826655	     -2.01186380	     -4.30079970	      0.06039261	     -3.67792905	     -4.30079970	      0.04201273	     -3.67792905	     -3.54183505	      0.03413511	     -3.08465613	     -3.28884683	      0.02100453	     -2.34314062	     -3.03585861	      0.26257130	    -17.11173356	    -22.51271312	      0.00000000	      0.00000000	     24.11822730	     14.28672440	     -4.75732914	    -26.03250670	    -47.85854482	    -47.46084822	     37.24529108	     60.42796040	    -23.48959559	     26.97498971	     24.74569247	    -46.03968722	      3.14454300	     46.77370357	     89.08405267	    -32.82413957	     -7.05226834
      2.01694915	     10.55528485	    -19.19537129	     93.68897012	      0.28997221	      0.96044771	      0.51295265	     47.58766381	      7.20652089	    -12.39837143	     43.22919634	      0.75449181	     29.87454839	    -14.61722897	      0.00000000	     51.10870872	    -12.27781649	      5.58964012	     46.33158438	      0.80863870	     37.38662427	      2.11409255	      0.00000000	      0.07287735	     -1.49864621	     -4.01903455	      0.13534053	     -1.99319946	     -4.27022421	      0.11973020	     -3.64380841	     -4.27022421	      0.08329152	     -3.64380841	     -3.51665524	      0.06767391	     -3.05603936	     -3.26546558	      0.04164212	     -2.32140299	     -3.01427592	      0.52055563	    -16.95298571	    -22.35266448	      0.00000000	      0.00000000	     24.22515045	     14.20929550	     -4.97968060	    -26.01462023	    -47.87387647	    -47.49733988	     37.26643317	     60.43459220	    -23.47864738	     26.96803863	     24.33682492	    -45.73574851	      3.43227998	     46.53798912	     89.12522858	    -32.76956876	     -7.11952072
      2.03389831	      9.92679085	    -18.79039834	     93.08945017	      0.29084256	      0.96363145	      0.51153752	     46.75935190	      7.23334658	    -11.48090101	     42.66861575	      0.74470783	     30.05058736	    -14.33566239	      0.00000000	     49.76122211	    -12.22658546	      4.74453657	     45.30881214	      0.79078795	     37.36581183	      2.16862428	      0.00000000	      0.07239898	     -1.58837890	     -3.63513190	      0.13445215	     -2.11254394	     -3.86232765	      0.11894429	     -3.86198447	     -3.86232765	      0.08274480	     -3.86198447	     -3.18074042	      0.06722969	     -3.23902226	     -2.95354467	      0.04136878	     -2.46039892	     -2.72634893	      0.51713868	    -17.96805983	    -20.21751311	      0.00000000	      0.00000000	     24.18089212	     12.83738469	     -8.39846589	    -27.69726530	    -46.38147216	    -49.55954750	     37.43078281	     61.13841941	    -22.57157955	     25.66955232	     27.40057852	    -45.24668518	      8.29231408	     43.82293411	     89.02097623	    -33.23288525	     -9.95732778
      2.05084746	      9.80464824	    -18.51404413	     93.07149908	      0.29044193	      0.96572332	      0.51067988	     46.28526515	      7.16787722	    -11.33754565	     42.38043593	      0.73967815	     30.13471469	    -14.07969201	      0.00000000	     49.12824897	    -12.15231330	      4.54215904	     44.80634316	      0.78201821	     37.34451254	      2.35946328	      0.00000000	      0.08262208	     -1.60900987	     -3.51940580	      0.15343746	     -2.13998312	     -3.73936867	      0.13573981	     -3.91214659	     -3.73936867	      0.09442877	     -3.91214659	     -3.07948008	      0.07672286	     -3.28109292	     -2.85951721	      0.04721026	     -2.49235628	     -2.63955435	      0.59016124	    -18.20144142	    -19.57387925	      0.00000000	      0.00000000	     24.46662380	     12.31790865	    -10.59745939	    -28.02782130	    -46.10852505	    -49.16240063	     37.57724839	     62.65939336	    -22.19069435	     24.36700422	     27.98837777	    -44.82244748	      9.21513322	     43.18610103	     89.01731704	    -32.61624537	    -10.49869081
